<?xml version="1.0" encoding="UTF-8"?>
<svg width="1373px" height="776px" viewBox="0 0 1373 776" version="1.1" xmlns="http://www.w3.org/2000/svg" xmlns:xlink="http://www.w3.org/1999/xlink">
    <!-- Generator: Sketch 41.2 (35397) - http://www.bohemiancoding.com/sketch -->
    <title>Atoms</title>
    <desc>Created with Sketch.</desc>
    <defs>
        <filter x="-50%" y="-50%" width="200%" height="200%" filterUnits="objectBoundingBox" id="filter-1">
            <feGaussianBlur stdDeviation="10" in="SourceGraphic"></feGaussianBlur>
        </filter>
        <filter x="-50%" y="-50%" width="200%" height="200%" filterUnits="objectBoundingBox" id="filter-2">
            <feGaussianBlur stdDeviation="10" in="SourceGraphic"></feGaussianBlur>
        </filter>
        <filter x="-50%" y="-50%" width="200%" height="200%" filterUnits="objectBoundingBox" id="filter-3">
            <feGaussianBlur stdDeviation="10" in="SourceGraphic"></feGaussianBlur>
        </filter>
    </defs>
    <g id="Page-1" stroke="none" stroke-width="1" fill="none" fill-rule="evenodd">
        <g id="Atoms" transform="translate(0.000000, 8.000000)">
            <g id="Lines" stroke-opacity="0.2" stroke="#FFFFFF">
                <g id="Group">
                    <path d="M2,484.6 C-5.4,415 26.4,350.7 111.1,348 C664.1,330 360.5,532.6 183.8,630.4 C182.7,631 181.7,631.6 180.6,632.1 C172.8,636.4 165.5,641 158.1,644.4 C52.6,692.7 15.9,615.4 2,484.6 Z" id="line8"></path>
                    <path d="M36.7,359 C40.2,361.5 53.8,362.5 53.8,362.5 C53.8,362.5 456.6,374.9 331.1,58 C318,24.8 285.5,17.8 271,17.8 C97,17.8 13.6,342.5 36.7,359 Z" id="line7"></path>
                    <path d="M196,614.8 C107.4,559.9 64.1,372 152.1,378.3 C398.3,395.7 759.9,500.6 939.3,556.7 C979.1,569.1 1081.6,598 1098,614.8 C1167,685.8 312,686.7 196,614.8 Z" id="line6"></path>
                    <path d="M132,135.8 C86,185.4 3.8,387.8 87,385.1 C133.7,383.6 161.5,382.8 164.3,382.6 C478,361.2 712.7,233.8 830.3,155 C857.7,136.6 878.9,121.1 892.9,109.8 C927.5,82 970.2,48.1 938,17.8 C921,1.8 299,-44.2 132,135.8 Z" id="line5"></path>
                </g>
                <g id="Group" transform="translate(95.000000, 30.000000)">
                    <path d="M964.5,555.4 C1035.5,245.7 1124.1,220.1 1197.9,298.9 C1458.3,577.2 944.8,641.1 964.5,555.4 Z" id="line4"></path>
                    <path d="M1007.1,633.8 C1009.8,376.1 900.3,-26.2 182.5,1.4 C72.6,5.6 33.6,72.1 25.9,104.2 C-11.5,259.7 131.2,434.2 316.2,580.4 C321.6,584.7 327,588.9 332.5,593.1 C602.9,801.7 1005.9,753.4 1007.1,633.8 Z" id="line3"></path>
                    <path d="M1197.5,646.6 C1149.6,652.2 1099.3,651.1 1060.7,641 C1014.4,628.8 985,604.9 997.2,570.6 C1037.9,456.4 1108.4,323.3 1184.6,196.3 C1188.6,189.6 1191.9,182.5 1196.7,176.3 C1267,84.7 1267,638.4 1197.5,646.6 Z" id="line2"></path>
                    <path d="M137,638.4 C156.3,663.1 986.3,719.1 1015.7,575.8 C1076.6,278.1 1017,97.5 989,30.5 C974.6,-3.9 142.2,39.8 99,69.2 C-32.2,158.3 -44.4,406.3 137,638.4 Z" id="line1"></path>
                </g>
            </g>
            <g id="Moving_Atoms" transform="translate(317.000000, 199.000000)" fill-opacity="0.2" fill="#FFFFFF">
                <circle id="atom10-line3" cx="12.8" cy="341.5" r="12.2"></circle>
                <circle id="atom9-line6" cx="527.8" cy="329.3" r="20"></circle>
                <circle id="atom8-line2" cx="815.3" cy="306.8" r="14.1"></circle>
                <circle id="atom7-line3" cx="722.3" cy="164" r="7.1"></circle>
                <circle id="atom6-line1" cx="820.1" cy="116" r="7.1"></circle>
                <circle id="atom5-line6" cx="151" cy="230.3" r="4.9"></circle>
                <circle id="atom4-line5" cx="435.5" cy="5.3" r="4.9"></circle>
                <circle id="atom3-line7" cx="24.9" cy="36.7" r="8.4"></circle>
                <circle id="atom2-line8" cx="24.9" cy="159" r="12.1"></circle>
                <circle id="atom1-line-2" cx="921" cy="92" r="15.4"></circle>
            </g>
            <g id="Blurred_Atmos" transform="translate(121.000000, 13.000000)" fill="#FFFFFF" fill-opacity="0.18">
                <circle id="blue3" filter="url(#filter-1)" cx="63.1" cy="371.9" r="62.8"></circle>
                <circle id="blur2" filter="url(#filter-2)" cx="355.1" cy="66.1" r="66"></circle>
                <circle id="blur1" filter="url(#filter-3)" cx="1161.3" cy="430.4" r="69.4"></circle>
            </g>
        </g>
    </g>
</svg>