<?xml version="1.0" encoding="utf-8"?>
<!-- Generator: Adobe Illustrator 18.1.1, SVG Export Plug-In . SVG Version: 6.00 Build 0)  -->
<svg version="1.1" id="Layer_1" xmlns="http://www.w3.org/2000/svg" xmlns:xlink="http://www.w3.org/1999/xlink" x="0px" y="0px"
	 viewBox="0 0 128 35" enable-background="new 0 0 128 35" xml:space="preserve">
<g>
	<path fill="#FFFFFF" d="M20.6,24.5H5.2c0.1,1.8,0.7,3.2,1.7,4.2c1,1,2.3,1.5,3.9,1.5c1.2,0,2.3-0.3,3.1-0.9
		c0.8-0.6,1.7-1.7,2.7-3.3l4.2,2.3c-0.6,1.1-1.3,2.1-2,2.8c-0.7,0.8-1.5,1.4-2.3,1.9c-0.8,0.5-1.7,0.9-2.7,1.1c-1,0.2-2,0.4-3.1,0.4
		c-3.2,0-5.8-1-7.7-3.1C1,29.5,0,26.8,0,23.4c0-3.4,0.9-6.1,2.8-8.3C4.7,13,7.2,12,10.4,12c3.2,0,5.7,1,7.5,3c1.8,2,2.7,4.8,2.7,8.3
		L20.6,24.5z M15.5,20.5c-0.7-2.7-2.4-4-5-4c-0.6,0-1.2,0.1-1.7,0.3c-0.5,0.2-1,0.5-1.4,0.8c-0.4,0.3-0.8,0.8-1.1,1.3
		c-0.3,0.5-0.5,1-0.7,1.7H15.5z"/>
	<path fill="#FFFFFF" d="M25.8,12.5l5.7,13.7l5.4-13.7h5.6L33,34.2l-2.9,0l-9.8-21.6H25.8z"/>
	<path fill="#FFFFFF" d="M42.1,23.3c0-3.1,1.1-5.7,3.3-7.9c2.2-2.2,4.9-3.3,8.1-3.3c3.2,0,5.9,1.1,8.1,3.3c2.2,2.2,3.3,4.9,3.3,8.1
		c0,3.2-1.1,5.9-3.3,8.1c-2.2,2.2-5,3.2-8.2,3.2c-3.2,0-5.9-1.1-8.1-3.3C43.1,29.3,42.1,26.6,42.1,23.3z M47.1,23.4
		c0,2.1,0.6,3.8,1.7,5.1c1.2,1.3,2.7,1.9,4.7,1.9c1.9,0,3.5-0.6,4.7-1.9c1.2-1.2,1.7-2.9,1.7-5c0-2.1-0.6-3.8-1.7-5
		c-1.2-1.3-2.7-1.9-4.7-1.9c-1.9,0-3.4,0.6-4.6,1.9C47.7,19.7,47.1,21.4,47.1,23.4z"/>
	<path fill="#FFFFFF" d="M84.2,0.4h5v33.8h-5v-2.2c-2,1.9-4.2,2.9-6.6,2.9c-2.9,0-5.4-1.1-7.3-3.2c-1.9-2.2-2.9-4.9-2.9-8.2
		c0-3.2,1-5.9,2.9-8c1.9-2.2,4.3-3.2,7.2-3.2c2.5,0,4.8,1,6.7,3.1V0.4z M72.4,23.4c0,2.1,0.5,3.7,1.7,5c1.1,1.3,2.6,2,4.3,2
		c1.8,0,3.3-0.6,4.4-1.9c1.1-1.3,1.7-3,1.7-5c0-2-0.6-3.7-1.7-5c-1.1-1.3-2.6-1.9-4.4-1.9c-1.7,0-3.1,0.6-4.3,1.9
		C73,19.8,72.4,21.4,72.4,23.4z"/>
	<path fill="#FFFFFF" d="M98.2,12.7v21.5h-5V12.7H98.2z"/>
	<path fill="#FFFFFF" d="M60.8,8.5H46.2V4.3h14.6V8.5z"/>
	<path fill="#FFFFFF" d="M117.6,12.9h5v21.5h-5v-2.2c-2,1.9-4.2,2.9-6.6,2.9c-3,0-5.4-1.1-7.4-3.2c-1.9-2.2-2.9-4.9-2.9-8.2
		c0-3.2,1-5.9,2.9-8.1c1.9-2.1,4.3-3.2,7.2-3.2c2.5,0,4.7,1,6.7,3.1V12.9z M105.8,23.5c0,2.1,0.5,3.7,1.7,5c1.1,1.3,2.6,2,4.3,2
		c1.8,0,3.3-0.6,4.4-1.9c1.1-1.3,1.7-3,1.7-5c0-2-0.6-3.7-1.7-5c-1.1-1.3-2.6-1.9-4.4-1.9c-1.7,0-3.1,0.6-4.3,1.9
		C106.4,20,105.8,21.6,105.8,23.5z"/>
	<rect x="93.3" y="4.1" fill="#FFFFFF" width="5" height="4.3"/>
	<g>
		<path fill="#FFFFFF" d="M122.6,2.7c0-0.5,0.1-0.9,0.4-1.3c0.2-0.4,0.6-0.7,1-1c0.4-0.2,0.9-0.4,1.4-0.4c0.5,0,1,0.1,1.4,0.4
			c0.4,0.2,0.7,0.6,1,1c0.2,0.4,0.4,0.9,0.4,1.3c0,0.5-0.1,1-0.4,1.4c-0.2,0.4-0.6,0.7-1,1s-0.9,0.4-1.3,0.4c-0.5,0-0.9-0.1-1.4-0.4
			c-0.4-0.2-0.8-0.6-1-1C122.7,3.7,122.6,3.2,122.6,2.7z M123.1,2.7c0,0.4,0.1,0.8,0.3,1.1c0.2,0.3,0.5,0.6,0.8,0.8s0.7,0.3,1.1,0.3
			c0.4,0,0.8-0.1,1.1-0.3c0.3-0.2,0.6-0.5,0.8-0.8c0.2-0.3,0.3-0.7,0.3-1.1c0-0.4-0.1-0.8-0.3-1.1c-0.2-0.3-0.5-0.6-0.8-0.8
			c-0.3-0.2-0.7-0.3-1.1-0.3c-0.4,0-0.8,0.1-1.1,0.3c-0.3,0.2-0.6,0.5-0.8,0.8C123.2,2,123.1,2.3,123.1,2.7z M125.6,1.3
			c0.3,0,0.5,0.1,0.6,0.2c0.2,0.1,0.2,0.3,0.2,0.6c0,0.2-0.1,0.4-0.2,0.6c-0.1,0.2-0.3,0.2-0.6,0.3v0c0.1,0,0.2,0.1,0.3,0.2
			c0.1,0.1,0.2,0.3,0.4,0.5l0.3,0.6H126l-0.1-0.3c-0.1-0.2-0.2-0.4-0.3-0.6c-0.1-0.1-0.2-0.2-0.3-0.3C125.2,3,125.1,3,124.9,3h-0.2
			v1.2h-0.5V1.3H125.6z M125.3,2.6c0.2,0,0.3,0,0.4-0.1c0.1-0.1,0.1-0.2,0.1-0.3c0-0.1,0-0.2-0.1-0.3c-0.1-0.1-0.2-0.1-0.4-0.1h-0.7
			v0.8H125.3z"/>
	</g>
</g>
</svg>
